<svg xmlns="http://www.w3.org/2000/svg" style="display: none;">
    <symbol id="icon-sun" viewBox="0 0 24 24" fill="none" stroke="currentColor" stroke-width="2" stroke-linecap="round" stroke-linejoin="round">
        <circle cx="12" cy="12" r="5"></circle>
        <line x1="12" y1="1" x2="12" y2="3"></line>
        <line x1="12" y1="21" x2="12" y2="23"></line>
        <line x1="4.22" y1="4.22" x2="5.64" y2="5.64"></line>
        <line x1="18.36" y1="18.36" x2="19.78" y2="19.78"></line>
        <line x1="1" y1="12" x2="3" y2="12"></line>
        <line x1="21" y1="12" x2="23" y2="12"></line>
        <line x1="4.22" y1="19.78" x2="5.64" y2="18.36"></line>
        <line x1="18.36" y1="5.64" x2="19.78" y2="4.22"></line>
    </symbol>
    <symbol id="icon-moon" viewBox="0 0 24 24" fill="none" stroke="currentColor" stroke-width="2" stroke-linecap="round" stroke-linejoin="round">
        <path d="M21 12.79A9 9 0 1 1 11.21 3 7 7 0 0 0 21 12.79z"></path>
    </symbol>
    <symbol id="icon-settings" viewBox="0 0 24 24" fill="none" stroke="currentColor" stroke-width="2" stroke-linecap="round" stroke-linejoin="round">
        <path d="M12.22 2h-.44a2 2 0 0 0-2 2v.18a2 2 0 0 1-1 1.73l-.43.25a2 2 0 0 1-2 0l-.15-.08a2 2 0 0 0-2.73.73l-.22.38a2 2 0 0 0 .73 2.73l.15.1a2 2 0 0 1 1 1.72v.51a2 2 0 0 1-1 1.72l-.15.1a2 2 0 0 0-.73 2.73l.22.38a2 2 0 0 0 2.73.73l.15-.08a2 2 0 0 1 2 0l.43.25a2 2 0 0 1 1 1.73V20a2 2 0 0 0 2 2h.44a2 2 0 0 0 2-2v-.18a2 2 0 0 1 1-1.73l.43-.25a2 2 0 0 1 2 0l.15.08a2 2 0 0 0 2.73-.73l.22-.38a2 2 0 0 0-.73-2.73l-.15-.1a2 2 0 0 1-1-1.72v-.51a2 2 0 0 1 1-1.72l.15-.1a2 2 0 0 0 .73-2.73l-.22-.38a2 2 0 0 0-2.73-.73l-.15.08a2 2 0 0 1-2 0l-.43-.25a2 2 0 0 1-1-1.73V4a2 2 0 0 0-2-2z"></path>
        <circle cx="12" cy="12" r="3"></circle>
    </symbol>
    <symbol id="icon-download" viewBox="0 0 24 24" fill="none" stroke="currentColor" stroke-width="2" stroke-linecap="round" stroke-linejoin="round">
        <path d="M21 15v4a2 2 0 0 1-2 2H5a2 2 0 0 1-2-2v-4"></path>
        <polyline points="7 10 12 15 17 10"></polyline>
        <line x1="12" y1="15" x2="12" y2="3"></line>
    </symbol>
    <symbol id="icon-close" viewBox="0 0 24 24" fill="none" stroke="currentColor" stroke-width="2" stroke-linecap="round" stroke-linejoin="round">
        <line x1="18" y1="6" x2="6" y2="18"></line>
        <line x1="6" y1="6" x2="18" y2="18"></line>
    </symbol>
    <symbol id="icon-play" viewBox="0 0 24 24">
        <path d="M8 5v14l11-7z" fill="currentColor"/>
    </symbol>
    <symbol id="icon-user" viewBox="0 0 24 24" fill="none" stroke="currentColor" stroke-width="2">
        <path d="M20 21v-2a4 4 0 0 0-4-4H8a4 4 0 0 0-4 4v2"></path>
        <circle cx="12" cy="7" r="4"></circle>
    </symbol>
    <symbol id="icon-calendar" viewBox="0 0 24 24" fill="none" stroke="currentColor" stroke-width="2">
        <rect x="3" y="4" width="18" height="18" rx="2" ry="2"></rect>
        <line x1="16" y1="2" x2="16" y2="6"></line>
        <line x1="8" y1="2" x2="8" y2="6"></line>
        <line x1="3" y1="10" x2="21" y2="10"></line>
    </symbol>
    <symbol id="icon-trash" viewBox="0 0 24 24" fill="none" stroke="currentColor" stroke-width="2">
        <path d="M3 6h18"></path>
        <path d="M19 6v14a2 2 0 0 1-2 2H7a2 2 0 0 1-2-2V6"></path>
        <path d="M8 6V4a2 2 0 0 1 2-2h4a2 2 0 0 1 2 2v2"></path>
    </symbol>
    <symbol id="icon-success" viewBox="0 0 24 24" fill="none" stroke="currentColor" stroke-width="2">
        <path d="M22 11.08V12a10 10 0 1 1-5.93-9.14"></path>
        <polyline points="22 4 12 14.01 9 11.01"></polyline>
    </symbol>
    <symbol id="icon-error" viewBox="0 0 24 24" fill="none" stroke="currentColor" stroke-width="2">
        <circle cx="12" cy="12" r="10"></circle>
        <line x1="15" y1="9" x2="9" y2="15"></line>
        <line x1="9" y1="9" x2="15" y2="15"></line>
    </symbol>
    <symbol id="icon-cloud-upload" viewBox="0 0 24 24" fill="none" stroke="currentColor" stroke-width="2" stroke-linecap="round" stroke-linejoin="round">
        <polyline points="16 16 12 12 8 16"></polyline>
        <line x1="12" y1="12" x2="12" y2="21"></line>
        <path d="M20.39 18.39A5 5 0 0 0 18 9h-1.26A8 8 0 1 0 3 16.3"></path>
    </symbol>
    <symbol id="icon-cloud-download" viewBox="0 0 24 24" fill="none" stroke="currentColor" stroke-width="2" stroke-linecap="round" stroke-linejoin="round">
        <polyline points="8 16 12 20 16 16"></polyline>
        <line x1="12" y1="12" x2="12" y2="20"></line>
        <path d="M20.39 18.39A5 5 0 0 0 18 9h-1.26A8 8 0 1 0 3 16.3"></path>
    </symbol>
    <symbol id="icon-youtube" viewBox="0 0 24 24" fill="currentColor">
        <path d="M23.498 6.186a3.016 3.016 0 0 0-2.122-2.136C19.505 3.545 12 3.545 12 3.545s-7.505 0-9.377.505A3.017 3.017 0 0 0 .502 6.186C0 8.07 0 12 0 12s0 3.93.502 5.814a3.016 3.016 0 0 0 2.122 2.136c1.871.505 9.376.505 9.376.505s7.505 0 9.377-.505a3.015 3.015 0 0 0 2.122-2.136C24 15.93 24 12 24 12s0-3.93-.502-5.814zM9.545 15.568V8.432L15.818 12l-6.273 3.568z"/>
    </symbol>
    <symbol id="icon-instagram" viewBox="0 0 24 24" fill="none" stroke="currentColor" stroke-width="2" stroke-linecap="round" stroke-linejoin="round">
        <rect x="2" y="2" width="20" height="20" rx="5" ry="5"></rect>
        <path d="M16 11.37A4 4 0 1 1 12.63 8 4 4 0 0 1 16 11.37z"></path>
        <line x1="17.5" y1="6.5" x2="17.51" y2="6.5"></line>
    </symbol>
    <symbol id="icon-tiktok" viewBox="0 0 24 24" fill="currentColor">
        <path d="M19.59 6.69a4.83 4.83 0 0 1-3.77-4.25V2h-3.45v13.67a2.89 2.89 0 0 1-5.2 1.74 2.89 2.89 0 0 1 2.31-4.64c.298-.002.595.042.88.13V9.4a6.33 6.33 0 0 0-1-.08A6.34 6.34 0 0 0 3 15.66a6.34 6.34 0 0 0 10.82 4.49 6.33 6.33 0 0 0 1.97-4.49V8.65a8.21 8.21 0 0 0 4.8 1.52V6.69z"/>
    </symbol>
    <symbol id="icon-facebook" viewBox="0 0 24 24" fill="currentColor">
        <path d="M24 12.073c0-6.627-5.373-12-12-12s-12 5.373-12 12c0 5.99 4.388 10.954 10.125 11.854v-8.385H7.078v-3.47h3.047V9.43c0-3.007 1.792-4.669 4.533-4.669 1.312 0 2.686.235 2.686.235v2.953H15.83c-1.491 0-1.956.925-1.956 1.874v2.25h3.328l-.532 3.47h-2.796v8.385C19.612 23.027 24 18.062 24 12.073z"/>
    </symbol>
    <symbol id="icon-link" viewBox="0 0 24 24" fill="none" stroke="currentColor" stroke-width="2" stroke-linecap="round" stroke-linejoin="round">
        <path d="M10 13a5 5 0 0 0 7.54.54l3-3a5 5 0 0 0-7.07-7.07l-1.72 1.71"></path>
        <path d="M14 11a5 5 0 0 0-7.54-.54l-3 3a5 5 0 0 0 7.07 7.07l1.71-1.71"></path>
    </symbol>
    <symbol id="icon-list" viewBox="0 0 24 24" fill="none" stroke="currentColor" stroke-width="2" stroke-linecap="round" stroke-linejoin="round">
        <line x1="8" y1="6" x2="21" y2="6"></line>
        <line x1="8" y1="12" x2="21" y2="12"></line>
        <line x1="8" y1="18" x2="21" y2="18"></line>
        <line x1="3" y1="6" x2="3.01" y2="6"></line>
        <line x1="3" y1="12" x2="3.01" y2="12"></line>
        <line x1="3" y1="18" x2="3.01" y2="18"></line>
    </symbol>
    <symbol id="icon-clipboard" viewBox="0 0 24 24" fill="none" stroke="currentColor" stroke-width="2" stroke-linecap="round" stroke-linejoin="round">
        <path d="M16 4h2a2 2 0 0 1 2 2v14a2 2 0 0 1-2 2H6a2 2 0 0 1-2-2V6a2 2 0 0 1 2-2h2"></path>
        <rect x="8" y="2" width="8" height="4" rx="1" ry="1"></rect>
    </symbol>
    <symbol id="icon-video" viewBox="0 0 24 24" fill="none" stroke="currentColor" stroke-width="2" stroke-linecap="round" stroke-linejoin="round">
        <polygon points="23 7 16 12 23 17 23 7"></polygon>
        <rect x="1" y="5" width="15" height="14" rx="2" ry="2"></rect>
    </symbol>
</svg>
